<svg xmlns="http://www.w3.org/2000/svg" width="512" height="512" viewBox="0 0 192 192">
  <rect width="192" height="192" rx="32" fill="#0d9488"/>
  <g transform="translate(96,96) scale(2.8)">
    <!-- Car body -->
    <path d="M-12 4h24c2 0 4-2 4-4v-6l-6-10h-8l-8 10h-10v6c0 2 2 4 4 4z" fill="#fff" opacity="0.95"/>
    <!-- Roof -->
    <path d="M-6 4l-2-6h16l2 6" fill="#0d9488" stroke="#fff" stroke-width="0.5"/>
    <!-- Windows -->
    <rect x="-4" y="-1" width="5" height="4" rx="0.5" fill="#0d9488" opacity="0.4"/>
    <rect x="3" y="-1" width="5" height="4" rx="0.5" fill="#0d9488" opacity="0.4"/>
    <!-- Wheels -->
    <circle cx="-6" cy="6" r="3" fill="#1e293b"/>
    <circle cx="-6" cy="6" r="1.2" fill="#fff" opacity="0.3"/>
    <circle cx="6" cy="6" r="3" fill="#1e293b"/>
    <circle cx="6" cy="6" r="1.2" fill="#fff" opacity="0.3"/>
    <!-- Wrench -->
    <g transform="translate(15,-12) rotate(25)">
      <rect x="-1.5" y="-8" width="3" height="16" rx="1" fill="#fbbf24"/>
      <path d="M-2-8c0-2 1-3 2-3s2 1 2 3l1 3h-6z" fill="#fbbf24"/>
      <path d="M-2-8c0-2 1-3 2-3" fill="none" stroke="#d97706" stroke-width="0.5"/>
    </g>
  </g>
</svg>
